<svg
      width="800"
      height="400"
      viewBox="0 0 220 26"
      fill="none"
      xmlns="http://www.w3.org/2000/svg"
    >
      <title>AI-Reformen</title>
      <path
        d="M189.203 8.56225L188.483 9.8584L196.744 14.4469L197.464 13.1507L189.203 8.56225Z"
        fill="#001346"
      />
      <path
        d="M189.577 9.03109L188.144 9.41309L191.817 23.1854L193.249 22.8034L189.577 9.03109Z"
        fill="#001346"
      />
      <path
        d="M196.377 13.4179L191.794 22.5977L193.12 23.2599L197.703 14.0802L196.377 13.4179Z"
        fill="#001346"
      />
      <path
        d="M203.424 20.4122L192.405 22.2441L192.648 23.7067L203.667 21.8748L203.424 20.4122Z"
        fill="#001346"
      />
      <path
        d="M203.599 20.3593L203.356 21.8218L214.373 23.6576L214.617 22.1951L203.599 20.3593Z"
        fill="#001346"
      />
      <path
        d="M210.564 13.4027L209.238 14.0659L213.828 23.2425L215.154 22.5793L210.564 13.4027Z"
        fill="#001346"
      />
      <path
        d="M217.812 8.51069L209.553 13.1021L210.274 14.398L218.533 9.80659L217.812 8.51069Z"
        fill="#001346"
      />
      <path
        d="M204.08 4.95025L202.905 5.85449L209.331 14.205L210.506 13.3008L204.08 4.95025Z"
        fill="#001346"
      />
      <path
        d="M202.89 4.93795L196.47 13.293L197.645 14.1964L204.066 5.84137L202.89 4.93795Z"
        fill="#001346"
      />
      <path
        d="M197.604 13.2506L196.488 14.2271L202.913 21.5688L204.028 20.5923L197.604 13.2506Z"
        fill="#001346"
      />
      <path
        d="M209.344 13.2605L202.918 20.6011L204.033 21.5777L210.46 14.2371L209.344 13.2605Z"
        fill="#001346"
      />
      <path
        d="M217.449 8.96806L213.775 22.7397L215.207 23.122L218.882 9.35031L217.449 8.96806Z"
        fill="#001346"
      />
      <path
        d="M218.211 10.9918C219.199 10.9918 220 10.1908 220 9.20267C220 8.21458 219.199 7.41357 218.211 7.41357C217.223 7.41357 216.422 8.21458 216.422 9.20267C216.422 10.1908 217.223 10.9918 218.211 10.9918Z"
        fill="#001346"
      />
      <path
        d="M188.834 10.9918C189.822 10.9918 190.623 10.1908 190.623 9.20267C190.623 8.21458 189.822 7.41357 188.834 7.41357C187.846 7.41357 187.045 8.21458 187.045 9.20267C187.045 10.1908 187.846 10.9918 188.834 10.9918Z"
        fill="#001346"
      />
      <path
        d="M197.097 15.5782C198.086 15.5782 198.887 14.7772 198.887 13.7891C198.887 12.801 198.086 12 197.097 12C196.109 12 195.308 12.801 195.308 13.7891C195.308 14.7772 196.109 15.5782 197.097 15.5782Z"
        fill="#001346"
      />
      <path
        d="M203.433 22.9229C204.421 22.9229 205.222 22.1219 205.222 21.1338C205.222 20.1457 204.421 19.3447 203.433 19.3447C202.445 19.3447 201.644 20.1457 201.644 21.1338C201.644 22.1219 202.445 22.9229 203.433 22.9229Z"
        fill="#001346"
      />
      <path
        d="M209.947 15.5782C210.935 15.5782 211.736 14.7772 211.736 13.7891C211.736 12.801 210.935 12 209.947 12C208.959 12 208.158 12.801 208.158 13.7891C208.158 14.7772 208.959 15.5782 209.947 15.5782Z"
        fill="#001346"
      />
      <path
        d="M192.511 24.6724C193.499 24.6724 194.3 23.8714 194.3 22.8833C194.3 21.8952 193.499 21.0942 192.511 21.0942C191.523 21.0942 190.722 21.8952 190.722 22.8833C190.722 23.8714 191.523 24.6724 192.511 24.6724Z"
        fill="#001346"
      />
      <path
        d="M214.543 24.6724C215.532 24.6724 216.333 23.8714 216.333 22.8833C216.333 21.8952 215.532 21.0942 214.543 21.0942C213.555 21.0942 212.754 21.8952 212.754 22.8833C212.754 23.8714 213.555 24.6724 214.543 24.6724Z"
        fill="#001346"
      />
      <path
        d="M203.522 7.23591C204.511 7.23591 205.312 6.43491 205.312 5.44682C205.312 4.45872 204.511 3.65771 203.522 3.65771C202.534 3.65771 201.733 4.45872 201.733 5.44682C201.733 6.43491 202.534 7.23591 203.522 7.23591Z"
        fill="#001346"
      />
    </svg>